<svg width="823" height="860" viewBox="0 0 823 860" fill="none" xmlns="http://www.w3.org/2000/svg">
<path fill-rule="evenodd" clip-rule="evenodd" d="M413.863 0.145753C466.627 2.1895 515.054 27.3948 562.873 49.7898C608.991 71.3877 652.586 97.0166 691.315 130.083C730.641 163.657 769.77 199.454 792.547 245.876C815.294 292.238 819.304 345.049 822.088 396.616C824.82 447.237 821.705 497.795 808.791 546.816C795.769 596.245 774.94 643.142 746.035 685.299C716.581 728.257 682.019 768.608 637.823 796.168C593.59 823.751 541.689 834.589 490.535 844.623C439.146 854.704 386.459 866.018 335.149 855.54C284.011 845.098 239.73 814.675 197.011 784.686C155.468 755.521 118.854 720.808 86.9705 681.312C54.5759 641.183 21.6257 599.671 7.59427 550.043C-6.43235 500.432 2.51143 448.097 6.50023 396.696C10.5251 344.83 11.145 291.907 31.3461 243.968C51.9069 195.175 85.0306 152.312 124.401 116.909C163.679 81.5875 211.324 57.8312 260.312 38.0705C309.625 18.1784 360.728 -1.91233 413.863 0.145753Z" fill="#2E3440"/>
</svg>
