<svg width="822" height="860" viewBox="0 0 822 860" fill="none" xmlns="http://www.w3.org/2000/svg">
<path fill-rule="evenodd" clip-rule="evenodd" d="M413.36 0.145801C466.06 2.19021 514.428 27.4037 562.189 49.8059C608.251 71.4108 651.793 97.048 690.475 130.125C729.753 163.71 768.835 199.518 791.584 245.955C814.303 292.333 818.309 345.161 821.089 396.745C823.818 447.381 820.707 497.956 807.808 546.993C794.802 596.438 773.998 643.351 745.128 685.521C715.71 728.492 681.19 768.857 637.048 796.426C592.869 824.017 541.031 834.859 489.939 844.897C438.612 854.98 385.99 866.298 334.742 855.817C283.665 845.371 239.439 814.939 196.772 784.939C155.279 755.765 118.71 721.041 86.8648 681.532C54.5096 641.39 21.5995 599.865 7.58505 550.221C-6.42454 500.594 2.50838 448.242 6.49233 396.825C10.5123 344.942 11.1314 292.001 31.308 244.047C51.8439 195.238 84.9273 152.361 124.249 116.946C163.48 81.6139 211.067 57.85 259.996 38.0828C309.249 18.1843 360.29 -1.91295 413.36 0.145801Z" fill="#3B4252"/>
</svg>
