<svg width="1920" height="1310" viewBox="0 0 1920 1310" fill="none" xmlns="http://www.w3.org/2000/svg">
<path d="M0 656.064V1217.4C0 1217.4 138.969 1110.18 295.333 1202.06C401.06 1264.19 516.893 1289.95 619.333 1303.4C810 1342.3 1092.89 1195.99 1239.33 1151.4C1383.44 1107.52 1464.9 1067.33 1538 1046.79C1636.36 1019.14 1719.33 1038.06 1920 1109.4V656.064L0 656.064Z" fill="url(#paint0_linear)"/>
<path d="M1920 460.997V48.0635C1920 48.0635 1802 189.796 1594.67 87.3968C1488.94 35.1795 1393.77 17.3632 1291.33 6.06345C1100.67 -26.6323 888.667 145.551 732 30.7301C575.333 -84.0907 349.333 168.699 0 48.0634V460.997H1920Z" fill="url(#paint1_linear)"/>
<path d="M0 549.664V1036.73C0 1036.73 126.97 994.516 283.333 1086.4C389.061 1148.52 508.226 1204.6 610.667 1218.04C801.333 1256.94 1072.89 1130.99 1219.33 1086.4C1557.33 983.478 1570.67 965.863 1920 1109.39V549.664L0 549.664Z" fill="#3B4252"/>
<path d="M1920 549.664V187.397C1920 187.397 1806 264.723 1598.67 162.323C1492.94 110.106 1397.77 90.5097 1295.33 79.2099C1104.67 46.5142 880 194.031 723.333 79.2098C566.666 -35.611 349.333 170.699 0 50.0635V549.664H1920Z" fill="#3B4252"/>
<defs>
<linearGradient id="paint0_linear" x1="126.667" y1="1182.73" x2="1832.67" y2="1144.73" gradientUnits="userSpaceOnUse">
<stop stop-color="#B48EAD"/>
<stop offset="1" stop-color="#88C0D0"/>
</linearGradient>
<linearGradient id="paint1_linear" x1="1527.33" y1="78.7301" x2="466.667" y2="49.3969" gradientUnits="userSpaceOnUse">
<stop stop-color="#EBCB8B"/>
<stop offset="1" stop-color="#D08770"/>
</linearGradient>
</defs>
</svg>
